<?xml version="1.0" encoding="UTF-8" standalone="no"?>
<svg
   width="400"
   height="120"
   viewBox="0 0 400 120"
   version="1.1"
   id="svg2"
   sodipodi:docname="logo.svg"
   inkscape:version="1.4.2 (f4327f4, 2025-05-13)"
   inkscape:export-filename="large_banner.png"
   inkscape:export-xdpi="96"
   inkscape:export-ydpi="96"
   xml:space="preserve"
   xmlns:inkscape="http://www.inkscape.org/namespaces/inkscape"
   xmlns:sodipodi="http://sodipodi.sourceforge.net/DTD/sodipodi-0.dtd"
   xmlns:xlink="http://www.w3.org/1999/xlink"
   xmlns="http://www.w3.org/2000/svg"
   xmlns:svg="http://www.w3.org/2000/svg"><style>
  #text1 { fill: #ffffff; }
  @media (prefers-color-scheme: light) { #text1 { fill: #1a1a1a; } }
</style><defs
     id="defs2"><linearGradient
       id="linearGradient3"
       inkscape:collect="always"><stop
         style="stop-color:#9846ff;stop-opacity:1;"
         offset="0"
         id="stop3" /><stop
         style="stop-color:#ad2a46;stop-opacity:1;"
         offset="1"
         id="stop4" /></linearGradient><linearGradient
       inkscape:collect="always"
       xlink:href="#linearGradient3"
       id="linearGradient4"
       x1="305.68109"
       y1="301.03268"
       x2="464.80676"
       y2="460.15836"
       gradientUnits="userSpaceOnUse"
       gradientTransform="matrix(1.9997278,0,0,1.9997278,186.39398,815.14694)" /></defs><sodipodi:namedview
     id="namedview2"
     pagecolor="#505050"
     bordercolor="#ffffff"
     borderopacity="1"
     inkscape:showpageshadow="0"
     inkscape:pageopacity="0"
     inkscape:pagecheckerboard="1"
     inkscape:deskcolor="#505050"
     inkscape:zoom="1.570039"
     inkscape:cx="111.4622"
     inkscape:cy="161.46096"
     inkscape:window-width="1920"
     inkscape:window-height="1009"
     inkscape:window-x="-8"
     inkscape:window-y="-8"
     inkscape:window-maximized="1"
     inkscape:current-layer="svg2" /><g
     id="g2"
     inkscape:label="logo"
     transform="matrix(0.10940802,0,0,0.10940802,-28.174537,-77.862387)"><path
       id="path1"
       style="fill:#1bd96a;fill-opacity:1;stroke-width:2.2709"
       d="m 661.86431,883.9733 c -37.92427,-1.61236 -76.75411,2.40258 -115.35965,12.73526 -203.74665,54.52446 -324.64885,263.68014 -270.05597,467.15444 5.10946,19.0548 76.55602,265.9908 351.24852,280.5102 v -98.1818 c -75.23293,-4.7069 -145.31603,-39.5747 -194.44443,-95.5125 l 113.14032,-67.8765 64.89945,72.2574 144.72656,-45.8254 86.36211,-105.89 -24.9359,-56.0913 -83.70427,26.4975 -38.33269,42.106 -53.86426,14.3239 c -0.0681,-0.021 -38.19427,-40.5329 -38.19427,-40.5329 l -18.8317,-52.3911 38.42502,-39.4905 53.77578,-16.9161 61.65697,-62.4495 -38.7212,-47.6677 -133.75675,28.8169 -105.8246,108.7093 33.7671,89.543 -112.0672,67.2418 c -3.31549,-8.7657 -6.22169,-17.7817 -8.71966,-27.0244 -40.28611,-150.1984 48.96071,-304.5502 199.34083,-344.81357 24.02627,-6.42666 48.14216,-9.5368 71.89596,-9.65048 z m 98.49348,17.41241 -17.57782,99.56269 c 82.95665,30.5893 150.24215,99.5573 174.85885,191.325 7.6144,28.3805 10.6048,56.9099 9.4312,84.7889 h 98.87828 c 0.4276,-160.6208 -97.46498,-322.51668 -265.59051,-375.67659 z"
       sodipodi:nodetypes="cccccccccccccccccccccccccccccccccc" /><path
       id="rect2"
       style="display:inline;fill:url(#linearGradient4);fill-rule:evenodd;stroke-width:15.6542;stroke-linejoin:round;stroke-miterlimit:0;paint-order:markers fill stroke"
       d="m 906.7754,1354.83 v 172.2032 H 731.77006 v 98.402 H 906.7754 v 172.2034 h 100.0031 v -172.2034 h 175.0053 v -98.402 H 1006.7785 V 1354.83 Z" /></g><text
     xml:space="preserve"
     style="font-weight:600;font-size:65.7891px;line-height:0.8;font-family:Inter;-inkscape-font-specification:'Inter Semi-Bold';text-align:start;writing-mode:lr-tb;direction:ltr;text-anchor:start;fill-opacity:1;stroke-width:0.548245;stroke-linejoin:round;stroke-miterlimit:0;paint-order:markers fill stroke;font-style:normal;font-stretch:normal;font-variant:normal"
     x="110.11256"
     y="57.407627"
     id="text1"
     inkscape:label="text"><tspan
       sodipodi:role="line"
       id="tspan1"
       x="110.11256"
       y="57.407627"
       style="line-height:0.8;direction:ltr;stroke-width:0.548245;-inkscape-font-specification:'Inter Semi-Bold';font-family:Inter;font-weight:600;font-style:normal;font-stretch:normal;font-variant:normal">modrinth</tspan><tspan
       sodipodi:role="line"
       x="110.11256"
       y="110.0389"
       id="tspan2"
       style="line-height:0.8;direction:ltr;stroke-width:0.548245;-inkscape-font-specification:'Inter Semi-Bold';font-family:Inter;font-weight:600;font-style:normal;font-stretch:normal;font-variant:normal">extras</tspan></text></svg>
